<svg width="16" height="16" viewBox="0 0 16 16" fill="none" xmlns="http://www.w3.org/2000/svg">
<path d="M12.9902 3.32832C12.0724 2.8986 11.0882 2.58199 10.0591 2.40066C10.0404 2.39716 10.0217 2.40591 10.012 2.4234C9.88545 2.65313 9.74524 2.95282 9.64706 3.18838C8.54025 3.01929 7.43911 3.01929 6.355 3.18838C6.25679 2.94758 6.11149 2.65313 5.98435 2.4234C5.97469 2.40649 5.95597 2.39775 5.93723 2.40066C4.90875 2.58141 3.92454 2.89802 3.00616 3.32832C2.99821 3.33182 2.9914 3.33765 2.98688 3.34523C1.12004 6.19117 0.608633 8.96716 0.859511 11.7087C0.860646 11.7221 0.868025 11.735 0.878242 11.7431C2.10993 12.6661 3.30303 13.2265 4.47397 13.5979C4.49271 13.6037 4.51257 13.5967 4.52449 13.581C4.80148 13.195 5.04839 12.788 5.26009 12.36C5.27258 12.3349 5.26066 12.3052 5.23512 12.2953C4.84348 12.1437 4.47056 11.9589 4.11184 11.749C4.08347 11.7321 4.0812 11.6907 4.1073 11.6708C4.18279 11.6131 4.25829 11.553 4.33038 11.4924C4.34342 11.4813 4.36159 11.479 4.37692 11.486C6.73357 12.5839 9.28493 12.5839 11.6138 11.486C11.6291 11.4784 11.6473 11.4808 11.6609 11.4918C11.733 11.5525 11.8085 11.6131 11.8845 11.6708C11.9106 11.6907 11.9089 11.7321 11.8806 11.749C11.5218 11.9629 11.1489 12.1437 10.7567 12.2947C10.7312 12.3046 10.7198 12.3349 10.7323 12.36C10.9486 12.7874 11.1955 13.1944 11.4673 13.5804C11.4787 13.5967 11.4991 13.6037 11.5179 13.5979C12.6945 13.2265 13.8876 12.6661 15.1193 11.7431C15.1301 11.735 15.1369 11.7227 15.138 11.7093C15.4383 8.53976 14.6351 5.78653 13.0089 3.34581C13.005 3.33765 12.9982 3.33182 12.9902 3.32832ZM5.61202 10.0394C4.9025 10.0394 4.31788 9.37472 4.31788 8.55842C4.31788 7.74213 4.89116 7.07744 5.61202 7.07744C6.33853 7.07744 6.91749 7.74796 6.90613 8.55842C6.90613 9.37472 6.33285 10.0394 5.61202 10.0394ZM10.3969 10.0394C9.68736 10.0394 9.10274 9.37472 9.10274 8.55842C9.10274 7.74213 9.676 7.07744 10.3969 7.07744C11.1234 7.07744 11.7023 7.74796 11.691 8.55842C11.691 9.37472 11.1234 10.0394 10.3969 10.0394Z" fill="#4D545E"/>
</svg>
