<svg width="40" height="40" viewBox="0 0 40 40" fill="none" xmlns="http://www.w3.org/2000/svg">
<path d="M0 8C0 3.58172 3.58172 0 8 0H32C36.4183 0 40 3.58172 40 8V32C40 36.4183 36.4183 40 32 40H8C3.58172 40 0 36.4183 0 32V8Z" fill="#151A1F"/>
<path d="M19.4953 7.19995C19.5445 7.22757 19.5981 7.21679 19.6499 7.21679C20.7192 7.21731 21.7884 7.21389 22.8576 7.21836C23.4181 7.22073 23.9789 7.2423 24.5394 7.2444C24.8677 7.24572 25.1957 7.2231 25.5239 7.21705C25.7191 7.21337 25.7465 7.23809 25.7309 7.42563C25.6886 7.9417 25.7249 8.45855 25.7041 8.97462C25.6536 10.2309 25.6852 11.4874 25.6747 12.7439C25.6741 12.8004 25.6676 12.8572 25.6597 12.9135C25.6494 12.9879 25.6021 13.0198 25.5297 13.0106C25.1157 12.9582 24.6991 12.9672 24.2837 12.9669C23.4557 12.9661 22.6277 12.9808 21.7999 12.9922C21.5853 12.995 21.3709 13.0074 21.1566 13.0182C20.9824 13.0271 20.9682 13.0424 20.9682 13.2102C20.968 14.3925 20.9677 15.5749 20.9682 16.7569C20.9682 16.9621 20.9748 16.9631 21.1858 16.9673C21.8825 16.9813 22.5793 16.9579 23.2745 16.9308C23.6801 16.915 24.0886 16.9221 24.4929 16.8684C24.5678 16.8584 24.5989 16.8932 24.5999 16.9634C24.601 17.0378 24.6015 17.1123 24.6018 17.1867C24.602 17.7735 24.6018 18.3601 24.6028 18.9469C24.6041 19.8312 24.5092 20.7124 24.5173 21.5972C24.5189 21.7724 24.5202 21.9465 24.5439 22.1209C24.5702 22.3161 24.5147 22.3621 24.325 22.3482C23.9976 22.3237 23.6704 22.3042 23.341 22.3297C23.1233 22.3466 22.9039 22.3342 22.6845 22.325C22.2773 22.3077 21.8704 22.3313 21.4638 22.3555C21.3896 22.36 21.3147 22.3708 21.241 22.3658C21.1382 22.3589 21.1037 22.3966 21.1042 22.5007C21.1069 23.0042 21.0874 23.5084 21.104 24.0113C21.1395 25.0837 21.1034 26.1568 21.1379 27.2287C21.165 28.0738 21.13 28.9189 21.1653 29.763C21.1876 30.2964 21.1539 30.8309 21.2073 31.3635C21.2273 31.5629 21.1845 31.6132 20.9759 31.6573C19.46 31.9782 17.9437 32.297 16.4278 32.6169C16.1795 32.6692 15.9307 32.7205 15.6837 32.7784C15.4614 32.8305 15.4128 32.7978 15.4128 32.5732C15.4117 31.3078 15.4286 30.0421 15.4065 28.7769C15.3731 26.8591 15.4175 24.9411 15.3794 23.0239C15.3604 22.078 15.3888 21.1322 15.3538 20.1874C15.3228 19.3509 15.3588 18.5147 15.3299 17.6791C15.2984 16.773 15.3328 15.8663 15.3005 14.9609C15.276 14.2778 15.3068 13.5948 15.277 12.9127C15.2471 12.2209 15.2805 11.5289 15.2486 10.8385C15.2205 10.2256 15.2536 9.61194 15.2205 9.00066C15.1929 8.48354 15.211 7.96826 15.2008 7.45246C15.1966 7.22941 15.2005 7.22967 15.4217 7.21494C15.4475 7.2131 15.473 7.20521 15.4985 7.19995H19.4953Z" fill="white"/>
</svg>
