<svg width="40" height="40" viewBox="0 0 40 40" fill="none" xmlns="http://www.w3.org/2000/svg">
<path d="M0 8C0 3.58172 3.58172 0 8 0H32C36.4183 0 40 3.58172 40 8V32C40 36.4183 36.4183 40 32 40H8C3.58172 40 0 36.4183 0 32V8Z" fill="#151A1F"/>
<path d="M19.068 18.3411C19.068 18.3411 19.7405 18.392 20.3096 19.1049L19.9992 19.1558L19.844 19.1049C19.844 19.1049 19.3784 18.5447 19.068 18.3411ZM18.0333 21.4981L17.7229 20.7343H17.6194L17.1021 21.3453C17.4642 21.6508 18.0333 21.4981 18.0333 21.4981ZM22.7928 17.0172L22.5341 17.119L22.8445 17.6791L23.8792 18.0356C23.4653 17.1699 22.7928 17.0172 22.7928 17.0172ZM19.844 18.0865C20.1544 18.4429 20.4648 18.9521 20.4648 18.9521C20.9821 18.4429 22.0685 18.2392 23.4653 18.2902C21.4994 17.8828 19.844 18.0865 19.844 18.0865ZM17.9298 17.3227C17.9298 17.3227 18.4989 17.3227 19.2749 17.4754C18.7576 17.119 17.9298 16.9153 17.9298 16.9153V17.3227ZM22.6893 20.1232L21.8098 20.887L22.4824 21.0907L23.1549 20.3778L22.7928 20.2251L22.6893 20.1232ZM16.8434 16.1006C16.8434 16.1006 17.2056 16.3043 17.2573 16.3043C17.309 16.3043 18.0333 16.5589 18.3437 16.6607C18.6024 16.7626 18.7576 16.6607 18.8093 16.6607C18.861 16.6607 19.7405 16.1516 19.7405 16.1516C18.9645 15.846 18.2402 15.6424 18.2402 15.6424C18.1885 15.6424 16.8434 16.1006 16.8434 16.1006ZM22.1202 16.5589C22.0685 16.4571 21.965 16.4571 21.3442 16.3552C20.7752 16.3043 20.2578 16.2534 20.1544 16.2534C20.0509 16.2534 19.9992 16.3043 19.9992 16.3043C19.9992 16.3043 19.6888 16.508 19.4301 16.6607C19.1714 16.8135 19.1197 16.8644 19.068 16.9663C19.0162 17.0172 19.1714 17.2209 19.1714 17.2209L19.5853 17.73C19.637 17.73 19.7922 17.8319 19.7922 17.8319C19.7922 17.8319 20.62 17.781 21.1373 17.73H22.4824C22.5341 17.73 22.4824 17.5264 22.3789 17.2718C22.2754 17.0681 22.1202 16.5589 22.1202 16.5589ZM17.2056 17.119C17.2056 17.119 17.2573 17.119 17.3608 17.1699C17.4642 17.1699 17.516 17.0681 17.516 16.9663C17.516 16.8135 17.3608 16.7626 17.3608 16.7626H17.2573L17.1021 16.8135L17.0503 17.1699H17.1021L17.2056 17.119C17.1538 17.0172 17.1538 16.9663 17.1538 16.8644C17.1538 16.8135 17.2573 16.7117 17.309 16.7117C17.309 16.7117 17.4125 16.7117 17.3608 16.9153C17.3608 17.119 17.2056 17.119 17.2056 17.119ZM25.9485 21.1416L25.5347 21.7017V21.7526H26.1037C26.2072 21.3962 25.9485 21.1416 25.9485 21.1416ZM15.6018 18.4938H15.4983L15.2397 18.4429C14.981 18.392 15.0845 17.9337 15.0845 17.9337L14.7741 18.0356C14.6706 17.8319 14.205 17.2718 14.205 17.2718L14.1015 17.6791C14.1533 17.73 14.4119 18.1374 14.4637 18.2392L14.3085 18.392C14.3085 18.392 14.2567 18.4938 14.2567 18.5447C14.2567 18.5957 14.205 18.6466 14.205 18.6466L13.9981 18.7484H13.9463L13.2221 18.1883V18.5957H13.2738C13.3255 18.6975 13.429 18.9012 13.6877 19.003C13.8946 19.1049 14.1533 19.1049 14.2567 19.0539C14.3602 19.1049 14.4119 19.1049 14.4637 19.1558C14.6706 19.2576 14.7223 19.2067 14.7223 19.2067L15.0327 19.1049H15.0845L15.1362 19.0539L15.2397 18.8503C15.2397 18.8503 15.757 18.9012 15.9639 18.9012C16.1709 18.5957 16.8434 18.1374 17.309 18.0865C17.7746 18.0865 18.5506 18.1883 19.1714 18.7993C19.7405 19.4104 19.5853 20.2251 19.5853 20.2251L20.7234 20.5815L20.2061 20.2251C19.7922 19.2067 18.8093 18.2902 18.8093 18.2902C18.8093 18.2902 18.5506 18.2392 18.3954 18.2392C18.2402 18.1883 18.1368 18.0865 18.1368 18.0865C18.1368 18.0865 18.085 18.0356 17.9816 17.8828L17.8781 17.6791C17.8781 17.6791 17.7746 17.5773 17.6194 17.4754C17.4642 17.3736 16.8951 17.3227 16.5847 17.2718C16.2743 17.2209 16.2743 17.2718 16.2743 17.2718C17.1538 17.4754 17.4125 17.5264 17.4642 17.5773C17.4642 17.5773 17.516 17.6791 17.5677 17.73C16.8434 17.5773 16.1709 17.6791 16.0157 17.73C16.1191 17.8828 16.1191 18.0865 16.0157 18.2392C15.9122 18.3411 15.6018 18.4938 15.6018 18.4938ZM25.4312 22.16L25.5864 22.8219C25.5864 22.8219 25.7416 22.6692 25.8968 22.4655C26.052 22.2618 26.1037 22.0582 26.1037 22.0582L25.4829 22.1091L25.4312 22.16ZM12.9634 17.5264L12.9117 18.0865H13.2221L13.2738 17.73V17.9337H13.3255V17.6282H13.2738V17.4245L13.7394 17.6791L13.7911 17.781L13.8946 17.8828H13.9981L14.0498 17.8319V17.781C13.7394 17.781 13.7394 17.6282 13.7394 17.6282C13.7394 17.6282 13.7911 17.2718 13.8429 17.1699C13.8946 17.0681 14.1015 17.119 14.1015 17.119L14.0498 17.0681H13.9463C13.8429 17.0172 13.5325 16.8135 13.429 16.7626V16.7117L13.4807 16.6607V16.4571H13.5325C13.5325 16.4062 13.5842 16.4062 13.5842 16.3552C13.6877 16.3552 14.4637 16.2025 14.4637 16.2025L13.7394 16.0497V15.9988C13.5325 15.9479 13.3773 15.897 13.2738 15.846C13.0151 16.1516 12.9117 16.5589 12.9117 16.5589C12.9117 16.5589 12.8599 17.2718 12.8599 17.3736C12.8082 17.4754 12.9634 17.5264 12.9634 17.5264ZM25.1208 21.549L25.2243 21.7017L25.276 21.6508L25.6899 21.1416V21.0907C25.4829 21.0907 25.1208 21.549 25.1208 21.549ZM23.8792 20.6324L23.5688 20.5306L22.8445 21.3453L23.3619 21.4981C23.4653 21.0907 23.8792 20.6324 23.8792 20.6324ZM24.9656 21.8036C24.7069 22.3128 24.7587 22.6692 24.7587 22.6692L25.0173 22.1091V22.0072C25.0691 22.0072 25.0173 21.9054 24.9656 21.8036ZM24.7069 18.4938C24.7069 18.4938 24.6035 18.6975 24.5517 18.7484C24.5 18.7993 24.1379 18.8503 23.9309 18.9012C23.724 19.003 23.3619 19.1558 23.2584 19.2576C23.2067 19.3085 23.2067 19.4613 23.2067 19.5122C23.2067 19.5122 23.3101 19.5631 23.3619 19.5631L22.8963 19.9705L22.9997 20.0723L24.1379 20.4288C24.3965 20.2251 24.7587 20.1742 24.7587 20.1742C24.5517 20.0723 23.6723 19.7159 23.4136 19.614C23.4136 19.614 23.2584 19.5631 23.2584 19.5122V19.3595C23.2584 19.3595 23.9309 18.8503 24.9656 18.8503L25.1208 18.5447L24.7069 18.4938ZM25.3795 22.9747L25.1725 22.3637H25.1208L24.8104 22.9238L24.8621 22.9747C25.1208 23.0765 25.3795 22.9747 25.3795 22.9747ZM17.5677 17.1699L17.7229 17.2209C17.7229 17.2209 17.8264 17.2209 17.8264 17.119V16.9153L17.6712 16.8135L17.4642 16.7626C17.516 16.8135 17.516 16.8644 17.516 16.8644H17.5677C17.5677 16.8135 17.6194 16.8135 17.6194 16.8644C17.6194 16.8644 17.7229 16.9153 17.6712 17.0681C17.7229 17.119 17.6194 17.1699 17.5677 17.1699ZM17.1021 19.9705C16.7399 20.6324 16.9986 21.0907 16.9986 21.0907L17.4642 20.4288V20.3269L17.1021 19.9705ZM13.7394 16.0497L14.3602 16.2025C14.4119 16.2025 14.7741 16.1516 14.7741 16.1516L13.7911 15.897L13.7394 16.0497ZM14.1015 15.897C14.9293 15.9988 15.0845 16.1516 15.0845 16.1516C15.0845 16.1516 15.3949 16.1006 15.5501 16.1006C15.2914 15.897 14.1533 15.5405 14.1533 15.5405C14.1533 15.5405 14.1015 15.6933 14.1015 15.897ZM15.3431 17.4754C15.1879 17.5773 15.0327 17.8828 15.0845 18.1374C15.1362 18.392 15.1879 18.392 15.3431 18.392C15.0845 18.2902 15.1362 17.8828 15.3431 17.6282C15.4983 17.4245 15.6535 17.5773 15.6535 17.5773C15.6535 17.5773 15.4983 17.3736 15.3431 17.4754ZM11.67 25.0115C10.9975 25.0115 10.2215 25.2661 10.6871 25.9789C14.5154 32.4456 18.5506 33.9732 20.2578 34.7879C21.0338 34.4315 22.2755 33.8714 23.7757 32.853C24.6552 32.2929 24.5517 31.4273 24.3448 30.8672C23.2584 28.2194 17.309 25.2151 11.67 25.0115ZM33.243 12.9437C31.691 11.8744 27.8627 9.93943 20.2578 9.93943C17.6194 9.93943 15.3949 10.194 13.6359 10.5505C14.0498 11.2124 14.2567 11.9762 14.2567 12.7909C14.2567 13.9111 13.8429 14.9295 13.1703 15.6933C13.3255 15.7442 13.5325 15.7951 13.7911 15.846L13.8946 15.5914C13.8946 15.5914 13.9981 15.5914 14.0498 15.6424C14.0498 15.3878 14.205 15.3878 14.205 15.3878C14.205 15.3878 14.205 15.3369 14.2567 15.3369C14.5154 15.3878 15.2397 15.7442 15.5501 15.897C15.8605 16.0497 15.8605 16.1006 15.8605 16.1006C15.8605 16.1006 16.5847 16.1006 16.7917 16.0497C16.9986 16.0497 17.3608 15.897 17.8781 15.7442C18.3954 15.5914 18.4989 15.5405 18.6024 15.5405C18.7058 15.5405 19.637 15.5914 20.4648 15.6933C21.2925 15.7951 22.0685 16.1006 22.2237 16.2025L22.4824 16.2534L22.5341 16.1006L22.1202 15.9479C22.1202 15.9479 22.172 15.6933 22.172 15.6424C22.172 15.5914 22.2237 15.5405 22.2754 15.5405C22.3272 15.5405 22.7928 15.6424 22.948 15.6933C23.1032 15.7442 23.6205 16.1006 23.6723 16.1006C23.724 16.1006 23.724 16.1516 23.724 16.1516C23.724 16.2534 23.6205 16.4571 23.6205 16.4571C23.6205 16.4571 23.7757 16.508 23.8275 16.5589C23.8792 16.6098 24.0344 16.7117 24.1896 16.8644C24.3448 16.9663 24.2931 17.119 24.2931 17.119L24.6552 17.4754V17.6282L25.5347 18.4938V18.5447L25.1208 18.7993C25.1208 18.7993 25.6899 18.7484 26.1037 18.9521C26.5176 19.1558 26.5693 19.2576 26.5693 19.3595C26.4659 19.4104 26.3107 19.4613 26.3107 19.4613C26.0003 19.5631 25.2243 20.0723 25.2243 20.0723V20.1232L25.6381 20.2251C26.1037 19.8177 26.9315 19.665 27.5523 19.7668C29.6734 20.1742 31.1219 21.549 31.4323 22.7201C31.4323 22.771 31.484 22.8729 31.484 22.9238C33.6051 18.0356 33.3982 14.5221 33.243 12.9437ZM25.7933 20.3778C25.8451 20.4288 25.8968 20.4288 25.9485 20.4797C26.2589 20.6833 26.4141 20.7852 26.4659 21.2435C26.5176 21.5999 26.4141 22.1091 26.1555 22.5674C27.604 23.5348 29.6216 22.771 30.3976 23.5348C30.2424 21.5999 27.3454 19.665 25.7933 20.3778ZM13.8946 17.8828L13.7911 17.9337V18.3411L13.8946 18.2902V17.8828ZM28.8456 24.1968C27.7592 24.1968 26.6728 23.8403 25.8968 22.9238V22.9747C25.4312 23.5857 24.9139 23.5857 24.7069 23.5857C24.5 23.5857 23.8275 23.2802 23.5688 22.9747C23.3101 22.6692 23.3101 22.1091 23.3101 22.1091L22.2754 21.7526L20.9821 21.0398L20.7752 20.9889C20.3613 21.1925 19.844 21.0398 19.3784 20.6833C19.3266 20.887 19.068 21.3962 18.7576 21.6508C18.4472 21.9054 17.8264 22.2618 17.3608 22.2618C16.8951 22.2618 15.8605 21.7526 15.5501 21.0398C15.2397 20.3269 15.5501 19.5631 15.5501 19.5631L15.0327 19.4613L14.8258 19.2067C14.8258 19.2067 14.205 19.7159 13.5325 19.5122C12.8599 19.3085 12.2909 18.7484 12.1357 18.2392C12.0322 17.73 12.1874 17.2718 12.2391 17.2209C12.1357 16.8644 12.1357 16.6607 12.1357 16.6607H12.0839V16.508C11.4114 16.9663 10.6354 17.1699 9.80764 17.1699C8.87643 17.1699 7.99696 16.8644 7.27269 16.4062C7.37615 17.5264 7.68656 18.8503 8.10043 20.3269C8.6695 22.3637 10.5319 23.0256 13.3255 23.4839C19.4818 24.4514 25.3795 29.085 24.9656 31.9365C26.5176 30.6635 28.1731 28.7795 29.8286 25.9789C30.5011 24.9096 29.8803 24.1968 28.8456 24.1968ZM12.3943 17.1699L12.3426 17.73H12.7047V17.6791H12.653V17.6282H12.6013L12.653 17.5264L12.7047 17.2718L12.653 17.2209V17.119L12.7047 17.0681L12.7565 16.4571L12.4978 16.3043C12.6013 15.897 12.8599 15.5405 12.8599 15.5405H12.7047C12.4461 15.846 12.3426 16.2534 12.3426 16.2534C12.3426 16.2534 12.2909 16.9153 12.2909 17.0172C12.2909 17.1699 12.3943 17.1699 12.3943 17.1699ZM18.085 20.5815L18.3437 21.3962C18.861 21.0398 18.9645 20.4797 18.9645 20.4797L18.1368 20.5306L18.085 20.5815ZM18.5506 19.3085L18.1368 20.0214L18.1885 20.0723L19.0162 20.1232C19.0162 19.5631 18.5506 19.3085 18.5506 19.3085ZM13.3773 17.73L13.3255 18.0356H13.3773V17.73ZM17.309 19.665L17.7229 19.9705L17.8264 19.9196L18.292 19.2067C17.7229 19.1558 17.309 19.665 17.309 19.665ZM13.4807 17.781L13.429 17.73V18.0865H13.4807V17.781ZM13.6359 17.8828L13.5842 18.2392H13.6359V17.8828ZM13.7394 17.9337L13.6877 18.2902H13.7394V17.9337ZM13.5325 17.8319V18.1883H13.4807L13.5325 17.8319ZM23.811 16.1819H23.8445L24.1982 16.3397H24.3864C24.9425 16.5494 25.2305 16.6591 25.2505 16.669C25.2704 16.6788 25.3227 16.7323 25.4072 16.8294L26.1818 17.174L26.1541 17.28L26.1401 17.3837C25.7763 17.2081 25.5897 17.1276 25.5804 17.1423C25.5712 17.157 25.5613 17.2029 25.5507 17.28L24.9949 17.9192L24.979 18H24.9362L24.6512 17.7349V17.6535L24.9189 17.6282L25.4072 17.1423C25.4291 17.0991 25.437 17.0713 25.431 17.0588C25.4219 17.0401 25.0572 16.8881 25.0224 16.8569C24.9991 16.8361 24.9704 16.7983 24.9362 16.7435C24.5202 16.5826 24.298 16.4968 24.2695 16.486C24.241 16.4751 24.1861 16.4701 24.1047 16.4707C24.0861 16.5022 24.0753 16.5208 24.0725 16.5264C24.0697 16.5321 24.0248 16.5886 23.9376 16.6962L23.8445 16.669C23.8265 16.6326 23.8265 16.6139 23.8445 16.6128C23.8626 16.6117 23.9093 16.5503 23.9847 16.4288L23.7575 16.3397L23.811 16.1819ZM26.2844 17.1516C26.9901 17.1538 27.3661 17.1538 27.4125 17.1516C27.4821 17.1484 28.0276 17.2681 28.0305 17.2798C28.0324 17.2877 28.0424 17.3086 28.0606 17.3427L27.5109 17.7576C27.3574 17.7515 27.2491 17.7284 27.1858 17.6882C27.0908 17.628 26.7616 17.5334 26.6803 17.5054C26.6261 17.4868 26.481 17.4568 26.2449 17.4155C26.2415 17.3134 26.2415 17.2524 26.2449 17.2325C26.2482 17.2125 26.2614 17.1856 26.2844 17.1516ZM9.99996 16C8.15901 16 6.66663 14.5077 6.66663 12.6667C6.66663 10.8258 8.15901 9.33337 9.99996 9.33337C11.8409 9.33337 13.3333 10.8258 13.3333 12.6667C13.3333 14.5077 11.8409 16 9.99996 16Z" fill="white"/>
</svg>
