<svg width="16" height="16" viewBox="0 0 16 16" fill="none" xmlns="http://www.w3.org/2000/svg">
<path d="M15.136 3.84143C14.6701 4.04409 14.1804 4.18521 13.679 4.2613C13.9134 4.22067 14.2584 3.79403 14.3957 3.62134C14.6044 3.36086 14.7634 3.0635 14.8647 2.74436C14.8647 2.72066 14.8881 2.6868 14.8647 2.66987C14.8528 2.66335 14.8396 2.65993 14.8261 2.65993C14.8127 2.65993 14.7994 2.66335 14.7876 2.66987C14.2431 2.96798 13.6635 3.19551 13.0627 3.34707C13.0417 3.35354 13.0194 3.35412 12.9982 3.34875C12.9769 3.34338 12.9575 3.33227 12.9421 3.3166C12.8953 3.2603 12.845 3.20714 12.7914 3.15746C12.5463 2.93549 12.2682 2.75381 11.9674 2.61908C11.5613 2.45065 11.1226 2.37771 10.6846 2.40576C10.2595 2.4329 9.84449 2.54816 9.46537 2.74436C9.09203 2.95122 8.76392 3.23225 8.50074 3.57055C8.2239 3.91875 8.02403 4.32285 7.91459 4.75566C7.82433 5.16735 7.8141 5.59285 7.88444 6.00849C7.88444 6.07959 7.88444 6.08975 7.82415 6.07959C5.43601 5.72406 3.47659 4.8674 1.87556 3.02879C1.80523 2.94752 1.76838 2.94752 1.71144 3.02879C1.01476 4.09877 1.35305 5.79178 2.2239 6.62813C2.34113 6.73987 2.46171 6.84822 2.58899 6.9498C2.18971 6.92114 1.80018 6.81176 1.44349 6.62813C1.3765 6.58411 1.33965 6.60781 1.33631 6.68907C1.32681 6.80174 1.32681 6.91501 1.33631 7.02768C1.40619 7.56761 1.61668 8.07909 1.94624 8.50982C2.27579 8.94054 2.7126 9.27506 3.21199 9.47916C3.33372 9.53187 3.46057 9.57159 3.59047 9.59767C3.22084 9.67123 2.84173 9.68267 2.46841 9.63153C2.38803 9.6146 2.35788 9.65861 2.38803 9.73649C2.88039 11.0909 3.94886 11.504 4.73263 11.7342C4.83981 11.7512 4.94699 11.7512 5.06757 11.7783C5.06757 11.7783 5.06757 11.7783 5.04747 11.7986C4.81636 12.2252 3.88187 12.513 3.45314 12.662C2.67061 12.9462 1.83628 13.0548 1.00806 12.9803C0.877433 12.96 0.847288 12.9634 0.813794 12.9803C0.7803 12.9972 0.813794 13.0345 0.850638 13.0683C1.01811 13.1801 1.18558 13.2783 1.35975 13.3731C1.87826 13.659 2.42642 13.8861 2.99427 14.0503C5.93507 14.8697 9.24431 14.267 11.4516 12.0491C13.1866 10.3087 13.7962 7.90804 13.7962 5.50397C13.7962 5.41255 13.9067 5.35837 13.9704 5.31097C14.4093 4.96522 14.7963 4.5569 15.1192 4.09877C15.1751 4.03048 15.2038 3.94353 15.1996 3.85498C15.1996 3.80419 15.1996 3.81434 15.136 3.84143Z" fill="#4D545E"/>
</svg>
