<svg width="40" height="40" viewBox="0 0 40 40" fill="none" xmlns="http://www.w3.org/2000/svg">
<path d="M0 8C0 3.58172 3.58172 0 8 0H32C36.4183 0 40 3.58172 40 8V32C40 36.4183 36.4183 40 32 40H8C3.58172 40 0 36.4183 0 32V8Z" fill="#151A1F"/>
<path d="M7.28103 10.4234C7.43861 10.3376 7.53903 10.5109 7.62404 10.6022C13.0938 16.8496 18.5701 23.0924 24.0394 29.3398C24.1518 29.4288 24.0667 29.6189 23.9151 29.5985C21.2963 29.6012 18.677 29.5994 16.0582 29.5994C15.8484 29.6017 15.6475 29.5064 15.5188 29.357C12.8015 26.2576 10.0858 23.1569 7.36852 20.057C7.25319 19.9317 7.19353 19.7697 7.20099 19.6068C7.20099 16.6122 7.20199 13.6172 7.2 10.6226C7.20149 10.5518 7.19851 10.4601 7.28103 10.4234Z" fill="white"/>
<path d="M32.5784 10.4088C32.6903 10.3702 32.8136 10.4647 32.7972 10.5718C32.8011 13.5677 32.7967 16.5636 32.7991 19.5596C32.8066 19.7293 32.7658 19.9049 32.645 20.0384C31.8193 20.9815 30.9926 21.9242 30.1669 22.8668C30.0292 23.0302 29.804 23.1206 29.5788 23.1101C26.9774 23.1078 24.3755 23.1115 21.774 23.1083C21.6204 23.1301 21.5329 22.9408 21.6463 22.8496C25.2539 18.729 28.8644 14.6098 32.474 10.4901C32.5014 10.4547 32.5362 10.4274 32.5784 10.4088Z" fill="white"/>
</svg>
