<svg width="16" height="12" viewBox="0 0 16 12" fill="none" xmlns="http://www.w3.org/2000/svg">
<path d="M15.6655 1.76C15.575 1.41961 15.3967 1.10895 15.1485 0.859104C14.9002 0.609261 14.5907 0.429 14.2509 0.336363C13 -2.81767e-07 8 0 8 0C8 0 3 -2.81767e-07 1.74909 0.336363C1.40929 0.429 1.09977 0.609261 0.851526 0.859104C0.603279 1.10895 0.425003 1.41961 0.334545 1.76C-6.71907e-07 3.01636 0 5.63636 0 5.63636C0 5.63636 -6.71907e-07 8.25636 0.334545 9.51273C0.425003 9.85312 0.603279 10.1638 0.851526 10.4136C1.09977 10.6635 1.40929 10.8437 1.74909 10.9364C3 11.2727 8 11.2727 8 11.2727C8 11.2727 13 11.2727 14.2509 10.9364C14.5907 10.8437 14.9002 10.6635 15.1485 10.4136C15.3967 10.1638 15.575 9.85312 15.6655 9.51273C16 8.25636 16 5.63636 16 5.63636C16 5.63636 16 3.01636 15.6655 1.76ZM6.36364 8.01545L6.36364 3.25727L10.5455 5.63636L6.36364 8.01545Z" fill="#4D545E"/>
</svg>
